<?xml version="1.0" encoding="UTF-8"?>
<svg xmlns="http://www.w3.org/2000/svg" height="16" width="16" viewBox="0 0 48 48">
  <g>
    <path d="M 2.438,0 C 1.087,0 0,1.088 0,2.438 V 45.56 C 0,46.91 1.087,48 2.438,48 H 45.56 C 46.91,48 48,46.91 48,45.56 V 2.438 C 48,1.088 46.91,0 45.56,0 Z" style="fill:#9b729b;fill-opacity:1;" />
    <path style="opacity:0.25;fill:#000000;" d="M 5,44 9,48 H 45.5 C 47,47.9 47.9,47 48,45.5 V 9 L 43,4 5,5 Z"/>
    <path style="fill:#ffffff;" d="M 7.521,3 C 6.104,3 4.91,3.859 4.156,4.973 3.405,6.096 3,7.513 3,9.075 V 38.92 C 3,40.48 3.405,41.9 4.156,43.02 4.91,44.14 6.104,45 7.521,45 H 40.48 C 41.89,45 43.1,44.14 43.84,43.02 44.6,41.9 45,40.48 45,38.92 V 9.075 C 45,7.513 44.6,6.096 43.84,4.973 43.1,3.859 41.89,3 40.48,3 Z M 7.521,5.627 H 40.48 C 40.84,5.627 41.25,5.833 41.65,6.438 42.05,7.034 42.36,7.991 42.36,9.075 V 38.92 C 42.36,40.01 42.05,40.96 41.65,41.57 41.25,42.16 40.84,42.37 40.48,42.37 H 7.521 C 7.163,42.37 6.758,42.16 6.352,41.57 5.947,40.96 5.639,40.01 5.639,38.92 V 9.075 C 5.639,7.991 5.947,7.034 6.352,6.438 6.758,5.833 7.163,5.627 7.521,5.627 Z M 21.93,9.104 C 21.34,9.104 20.86,9.593 20.86,10.19 V 12.29 C 19.82,12.57 18.8,12.99 17.89,13.52 L 16.37,12.02 C 16.17,11.82 15.92,11.7 15.65,11.7 15.37,11.7 15.09,11.8 14.87,12.01 L 11.94,14.93 C 11.53,15.35 11.54,16 11.96,16.42 L 13.46,17.91 C 12.93,18.84 12.51,19.84 12.22,20.88 H 10.11 C 9.514,20.88 9.022,21.35 9.022,21.94 V 26.05 C 9.022,26.65 9.514,27.12 10.11,27.12 H 12.22 C 12.51,28.16 12.93,29.16 13.46,30.09 L 11.96,31.58 C 11.54,32 11.53,32.65 11.94,33.07 L 14.87,35.99 C 15.29,36.4 15.95,36.39 16.37,35.97 L 17.89,34.48 C 18.8,35.01 19.82,35.43 20.86,35.7 V 37.81 C 20.86,38.4 21.34,38.9 21.93,38.9 H 26.07 C 26.66,38.9 27.14,38.4 27.14,37.81 V 35.7 C 28.18,35.43 29.2,35.01 30.11,34.48 L 31.63,35.97 C 32.05,36.39 32.71,36.4 33.13,35.99 L 36.06,33.07 C 36.48,32.65 36.47,32 36.04,31.58 L 34.54,30.09 C 35.07,29.16 35.49,28.16 35.78,27.12 H 37.89 C 38.49,27.12 38.98,26.65 38.98,26.05 V 21.94 C 38.98,21.35 38.49,20.88 37.89,20.88 H 35.78 C 35.49,19.84 35.07,18.84 34.54,17.91 L 36.04,16.42 C 36.47,16 36.48,15.35 36.06,14.93 L 33.13,12.01 C 32.71,11.6 32.05,11.6 31.63,12.02 L 30.11,13.52 C 29.2,12.99 28.18,12.57 27.14,12.29 V 10.19 C 27.14,9.593 26.66,9.104 26.07,9.104 Z M 24,19.5 C 26.49,19.5 28.53,21.52 28.53,24 28.53,26.48 26.49,28.5 24,28.5 21.51,28.5 19.47,26.48 19.47,24 19.47,21.52 21.51,19.5 24,19.5 Z" />
  </g>
</svg>
