<?xml version="1.0" encoding="UTF-8"?>
<svg xmlns="http://www.w3.org/2000/svg" height="16" width="16" viewBox="0 0 48 48">
  <g>
    <path d="M 2.438,0 C 1.088,0 0,1.09 0,2.44 V 45.56 C 0,46.91 1.088,48 2.438,48 H 45.56 C 46.91,48 48,46.91 48,45.56 V 2.44 C 48,1.09 46.91,0 45.56,0 Z" style="fill:#f38725;fill-opacity:1;" />
    <path style="opacity:0.25;fill:#000000;" d="M 36,10 11,12 C 10.26,20.3 8,37.3 8,37.3 L 18.7,48 H 45.53 C 47,47.9 47.9,47 48,45.5 V 11.3 L 41.1,4.4 Z"/>
    <path style="fill:#ffffff;" d="M 11.85,40.88 C 13.12,41.73 14.04,42.23 15.57,42.9 16.26,43.21 18.54,43.91 19.35,44.07 20.68,44.34 22.21,44.5 23.43,44.5 24.63,44.51 26.88,44.25 28.04,43.98 28.81,43.8 31.3,42.96 31.9,42.68 34.17,41.62 35.5,40.72 37.03,39.23 L 38.22,38.08 38.19,37.75 C 38.14,37.45 38,37.29 35.62,34.92 33.34,32.65 33.08,32.4 32.84,32.39 32.45,32.36 32.05,32.54 31.65,32.93 31.04,33.54 29.41,34.63 28.57,34.99 27.96,35.26 26.26,35.81 25.95,35.84 25.76,35.86 25.34,35.92 25.05,35.98 24.01,36.18 21.62,36.06 20.57,35.75 20.44,35.72 20.12,35.63 19.84,35.55 17.86,34.99 15.41,33.34 14.09,31.65 13.11,30.4 12.27,28.83 11.93,27.65 11.86,27.36 11.76,27.03 11.73,26.92 11.59,26.39 11.42,25 11.4,24.15 11.39,23.33 11.57,21.7 11.72,21.15 11.76,21.04 11.86,20.7 11.93,20.43 12.37,18.86 13.6,16.79 14.86,15.51 15.42,14.94 16.93,13.81 17.46,13.56 17.69,13.46 17.92,13.32 17.96,13.26 18.11,13.13 19.77,12.52 20.57,12.3 21.12,12.15 22.46,11.96 22.52,12.04 22.55,12.08 22.61,12.08 22.66,12.04 22.78,11.91 24.63,11.98 25.47,12.15 25.94,12.24 26.41,12.32 26.5,12.32 26.6,12.33 26.73,12.37 26.76,12.39 26.8,12.44 26.97,12.5 27.15,12.53 27.31,12.57 27.62,12.66 27.82,12.76 28.8,13.21 29.74,13.7 30.06,13.92 L 30.4,14.2 28.2,16.41 C 26.51,18.1 25.99,18.67 25.95,18.83 25.93,18.95 26.04,19.21 26.18,19.39 26.39,19.67 26.55,19.76 27.1,19.92 32.75,21.03 37.09,21.89 43.17,23.11 43.98,23.32 44.32,23.29 44.68,22.91 45.12,22.47 45.11,22.31 44.58,19.94 L 41.65,5.29 C 41.5,4.78 41.4,4.6 41.15,4.41 40.96,4.27 40.73,4.17 40.59,4.19 40.43,4.21 39.89,4.71 38.35,6.26 L 36.3,8.3 35.9,7.89 C 35.15,7.13 32.6,5.65 31.09,5.09 29.77,4.6 29.31,4.45 28.27,4.18 27.64,4.03 27.09,3.9 27.04,3.9 27.01,3.91 26.64,3.84 26.26,3.76 25.33,3.59 21.56,3.58 20.64,3.76 20.25,3.84 19.88,3.9 19.84,3.9 19.66,3.87 17.89,4.35 16.94,4.67 16.41,4.86 15.86,5.04 15.69,5.09 15.11,5.29 12.75,6.58 11.81,7.22 10.98,7.8 10.57,8.16 9.057,9.67 7.179,11.56 6.455,12.47 5.729,13.88 5.563,14.2 5.38,14.5 5.321,14.57 5.23,14.65 4.997,15.15 4.66,15.94 4.519,16.29 3.735,18.58 3.637,18.95 3.241,20.43 2.983,22.57 3.001,24.24 3.014,25.39 3.234,27.53 3.384,27.99 3.435,28.13 3.486,28.35 3.498,28.49 3.534,28.86 4.352,31.41 4.662,32.11 5.208,33.35 5.715,34.25 6.574,35.55 7.216,36.51 7.44,36.76 9.135,38.44 10.67,39.97 11.14,40.4 11.85,40.88" />
  </g>
</svg>