<?xml version="1.0" encoding="UTF-8"?>
<svg xmlns="http://www.w3.org/2000/svg" height="18" width="32" viewBox="0 0 32 18">
  <g>
    <path style="fill:#000000;" d="M 0,15 V 3 H 1 V 15 Z M 32,3 H 31 V 15 H 32 Z M 2,9 6,5 V 13 C 5.93,12.9 2,9 2,9 Z M 26,5 30,9 26,13 Z M 8,9 C 8,8 9,7 10,7 11,7 12,8 12,9 12,10 11,11 10.1,11 9,11 8,10 8,9 Z M 14,9 C 14,8 15,7 16,7 17,7 18,8 18,8.94 18,10 17,11 16,11 15,11 14,10 14,9 Z M 20,9 C 20,8 21,7 22,7 23,7 24,8 24,9 24,10 23,11 22,11 21,11 20,10 20,9 Z" />
  </g>
</svg>
